HIERARCHY
ROOT RootJoint
{
    OFFSET   0.000000   0.000000   0.000000
    CHANNELS 6 Xposition Yposition Zposition Xrotation Yrotation Zrotation
    JOINT pelvis_lowerback
    {
        OFFSET   0.000000   0.093605   0.000000
        CHANNELS 3 Xrotation Yrotation Zrotation
        JOINT lowerback_torso
        {
            OFFSET   0.000000   0.100000   0.000000
            CHANNELS 3 Xrotation Yrotation Zrotation
            JOINT torso_head
            {
                OFFSET   0.000000   0.282350   0.000000
                CHANNELS 3 Xrotation Yrotation Zrotation
                End Site
                {
                    OFFSET   0.000000   0.192650   0.000000
                }
            }
            JOINT rTorso_Clavicle
            {
                OFFSET  -0.001000   0.157500   0.000000
                CHANNELS 3 Xrotation Yrotation Zrotation
                JOINT rShoulder
                {
                    OFFSET  -0.117647   0.000000   0.000000
                    CHANNELS 3 Xrotation Yrotation Zrotation
                    JOINT rElbow
                    {
                        OFFSET  -0.245000   0.000000   0.000000
                        CHANNELS 3 Xrotation Yrotation Zrotation
                        JOINT rWrist
                        {
                            OFFSET  -0.240000   0.000000   0.000000
                            CHANNELS 3 Xrotation Yrotation Zrotation
                            End Site
                            {
                                OFFSET  -0.116353  -0.002500   0.000000
                            }
                        }
                    }
                }
            }
            JOINT lTorso_Clavicle
            {
                OFFSET   0.001000   0.157500   0.000000
                CHANNELS 3 Xrotation Yrotation Zrotation
                JOINT lShoulder
                {
                    OFFSET   0.117647   0.000000   0.000000
                    CHANNELS 3 Xrotation Yrotation Zrotation
                    JOINT lElbow
                    {
                        OFFSET   0.245000   0.000000   0.000000
                        CHANNELS 3 Xrotation Yrotation Zrotation
                        JOINT lWrist
                        {
                            OFFSET   0.240000   0.000000   0.000000
                            CHANNELS 3 Xrotation Yrotation Zrotation
                            End Site
                            {
                                OFFSET   0.116353  -0.002500   0.000000
                            }
                        }
                    }
                }
            }
        }
    }
    JOINT rHip
    {
        OFFSET  -0.100000  -0.051395   0.000000
        CHANNELS 3 Xrotation Yrotation Zrotation
        JOINT rKnee
        {
            OFFSET   0.000000  -0.410000   0.000000
            CHANNELS 3 Xrotation Yrotation Zrotation
            JOINT rAnkle
            {
                OFFSET   0.000000  -0.390000   0.000000
                CHANNELS 3 Xrotation Yrotation Zrotation
                JOINT rToeJoint
                {
                    OFFSET   0.000000  -0.050000   0.130000
                    CHANNELS 3 Xrotation Yrotation Zrotation
                    End Site
                    {
                        OFFSET  -0.010000   0.002000   0.060000
                    }
                }
            }
        }
    }
    JOINT lHip
    {
        OFFSET   0.100000  -0.051395   0.000000
        CHANNELS 3 Xrotation Yrotation Zrotation
        JOINT lKnee
        {
            OFFSET   0.000000  -0.410000   0.000000
            CHANNELS 3 Xrotation Yrotation Zrotation
            JOINT lAnkle
            {
                OFFSET   0.000000  -0.390000   0.000000
                CHANNELS 3 Xrotation Yrotation Zrotation
                JOINT lToeJoint
                {
                    OFFSET   0.000000  -0.050000   0.130000
                    CHANNELS 3 Xrotation Yrotation Zrotation
                    End Site
                    {
                        OFFSET   0.010000   0.002000   0.060000
                    }
                }
            }
        }
    }
}
MOTION
Frames: 7
Frame Time:   0.008333
 -2.165442   0.938373   4.053155  12.767886  25.452663  -8.401517   5.863933   1.680826  -3.771863  -7.119316  -2.321808   1.667113  -1.573361   4.051623  -1.319494  -7.157958 -21.229283 -16.410523 -11.687265 -13.338822  10.573636  -0.000011  -0.000367   0.000009  -0.910346  -2.820627  -2.613124 -10.907113  10.168613  21.863773 -13.632843   1.136677  -0.805921   0.007205  10.226529   0.002960   2.741837  -0.488141  -0.154044  -7.031742  -5.132392  -6.724265   3.002853   0.000633  -0.001496  14.658640 -10.629954   9.172438 -25.204243   0.003025  -0.013312 -12.905124  -1.255551   5.084183  13.358784  -0.001035   0.008760  -2.398483  -2.268477  -1.090977 -12.851023  -0.006468   0.027210
 -2.166435   0.937014   4.054461  12.731980  25.720469  -8.439962   5.891361   1.786415  -3.764863  -7.200948  -2.299354   1.523116  -1.495962   4.101745  -1.379622  -7.382671 -21.070759 -16.944244 -11.877037 -13.237443  10.469817  -0.000009  -0.000294   0.000008  -0.936824  -2.912034  -2.573599 -11.154704  10.080780  22.289133 -13.791073   1.131028  -0.645090   0.005591  10.181233   0.002208   2.720666  -0.405040  -0.118398  -6.828787  -5.245812  -6.604549   3.075571   0.000456  -0.001090  14.440714 -10.748371   9.220084 -27.304992   0.004822  -0.010976 -13.249106  -1.353162   5.270241  13.090803  -0.000509   0.006430  -2.392960  -1.833839  -1.137380 -11.774109  -0.007244   0.027687
 -2.167299   0.935386   4.055694  12.695685  25.958724  -8.478467   5.903125   1.890104  -3.745862  -7.290536  -2.262145   1.382431  -1.432386   4.147205  -1.437514  -7.582579 -20.870474 -17.468400 -12.063693 -13.096961  10.358716  -0.000007  -0.000235   0.000006  -0.964350  -2.924972  -2.540678 -11.381691   9.980367  22.692861 -13.940708   1.111478  -0.492947   0.004341  10.144994   0.001640   2.692823  -0.360193  -0.085089  -6.641243  -5.363653  -6.485545   3.163211   0.000307  -0.000769  14.200799 -10.865210   9.263077 -29.724245   0.006327  -0.008385 -13.561578  -1.462133   5.487841  12.772814   0.000079   0.004559  -2.387641  -1.427419  -1.179874 -10.760201  -0.007815   0.027148
 -2.168028   0.933544   4.056827  12.656985  26.175170  -8.506897   5.911373   1.998407  -3.727898  -7.377812  -2.213252   1.246979  -1.379123   4.189157  -1.491351  -7.761005 -20.653127 -17.967759 -12.242149 -12.940872  10.248923  -0.000006  -0.000188   0.000005  -0.988901  -2.879848  -2.519341 -11.588854   9.874302  23.068169 -14.080675   1.083870  -0.352790   0.003372  10.116001   0.001217   2.665111  -0.340205  -0.055063  -6.456617  -5.479249  -6.381255   3.242227   0.000200  -0.000538  13.942594 -10.978289   9.301934 -32.378948   0.007446  -0.005840 -13.861116  -1.570052   5.718736  12.463595   0.000609   0.003131  -2.382915  -1.047904  -1.219530  -9.829820  -0.008138   0.025949
 -2.168457   0.932634   4.057772  12.672070  26.233560  -8.665316   5.898276   2.170115  -3.613105  -7.516508  -2.113282   1.162876  -1.334264   4.229700  -1.541774  -7.925619 -20.418771 -18.377432 -12.411873 -12.776573  10.172220  -0.000005  -0.000150   0.000005  -1.010541  -2.774260  -2.520886 -11.794225   9.800788  23.344994 -14.211864   1.083604  -0.255152   0.002638  10.092804   0.000899   2.638618  -0.313503  -0.027096  -6.304859  -5.586363  -6.176096   3.224827   0.000167  -0.000428  13.302591 -11.058745   9.449893 -31.058109   0.002944  -0.006614 -14.107860  -1.717038   6.027036  12.234146   0.000845   0.002481  -2.469525  -0.750657  -1.296632  -9.940533  -0.006372   0.020496
 -2.168663   0.932090   4.058563  12.706644  26.291853  -8.800081   5.880360   2.323905  -3.537356  -7.647414  -2.016207   1.085389  -1.293773   4.266444  -1.582856  -8.078753 -20.188422 -18.743456 -12.570076 -12.621910  10.122882  -0.000004  -0.000120   0.000004  -1.030745  -2.670567  -2.463920 -11.985853   9.727603  23.602300 -14.335547   1.085783  -0.172386   0.002066  10.074246   0.000665   2.612888  -0.268182  -0.041568  -6.197427  -5.675126  -6.018709   3.187342   0.000145  -0.000343  12.920897 -11.129865   9.548118 -30.167160   0.001059  -0.006173 -14.309822  -1.844540   6.271385  12.022588   0.000946   0.001962  -2.516551  -0.455252  -1.354309  -9.686749  -0.005322   0.017030
 -2.168667   0.931799   4.059262  12.769417  26.363147  -8.898149   5.847884   2.459862  -3.504734  -7.774812  -1.929760   0.995927  -1.255616   4.300406  -1.622361  -8.220940 -19.972121 -19.077459 -12.717119 -12.478687  10.085145  -0.000003  -0.000096   0.000003  -1.049929  -2.572058  -2.379561 -12.162411   9.653529  23.844812 -14.451140   1.083819  -0.095377   0.001621  10.059398   0.000493   2.588396  -0.226436  -0.067398  -6.144451  -5.754763  -5.927432   3.168365   0.000119  -0.000277  12.679995 -11.206421   9.613137 -29.557128   0.000337  -0.005376 -14.422291  -1.970779   6.420907  11.932420   0.000838   0.001572  -2.587550  -0.208020  -1.441159  -9.399734  -0.004320   0.014220
